<?xml version="1.0" encoding="utf-8"?>
<svg xmlns="http://www.w3.org/2000/svg" viewBox="350.567 264.137 689.736 689.7361" width="689.736px" height="689.736px" preserveAspectRatio="none"><g id="object-0"><ellipse style="fill: rgb(5, 220, 104);" cx="695.435" cy="609.005" rx="344.868" ry="344.868"/><path id="path38" style="fill:#ffffff;fill-opacity:1;fill-rule:nonzero;stroke:none" d="M 845.254 547.214 C 845.254 629.545 778.512 696.285 696.182 696.285 C 613.852 696.285 547.111 629.545 547.111 547.214 C 547.111 464.884 613.852 398.142 696.182 398.142 C 778.512 398.142 845.254 464.884 845.254 547.214"/><path id="path42" style="fill-opacity: 1; fill-rule: nonzero; stroke: none; fill: rgb(5, 220, 104);" d="M 802.345 547.214 C 802.345 605.685 754.946 653.084 696.477 653.084 C 638.006 653.084 590.608 605.685 590.608 547.214 C 590.608 488.744 638.006 441.345 696.477 441.345 C 754.946 441.345 802.345 488.744 802.345 547.214"/><path id="path46" style="fill:#ffffff;fill-opacity:1;fill-rule:nonzero;stroke:none" d="M 763.075 547.832 C 763.075 585.009 732.937 615.147 695.761 615.147 C 658.583 615.147 628.446 585.009 628.446 547.832 C 628.446 510.656 658.583 480.518 695.761 480.518 C 732.937 480.518 763.075 510.656 763.075 547.832"/><path id="path50" style="fill:#ffffff;fill-opacity:1;fill-rule:nonzero;stroke:none" d="M 821.777 818.223 L 570.221 818.223 C 547.244 818.223 525.777 798.444 525.777 772.444 L 570.221 682.667 C 570.221 682.667 618.221 734.667 696 734.667 C 773.777 734.667 820.444 682.667 820.444 682.667 L 866.222 772.444 C 866.222 796.444 844.754 818.223 821.777 818.223"/></g></svg>