<svg width="831" height="841" viewBox="0 0 831 841" fill="none" xmlns="http://www.w3.org/2000/svg">
<path d="M385.293 2.01306C372.493 2.94639 358.36 4.67973 353.96 5.74639C349.56 6.81306 340.627 8.67973 333.96 9.87973C318.627 12.6797 296.893 18.8131 283.293 24.0131C277.427 26.2797 269.16 29.2131 265.027 30.5464C256.627 33.3464 239.293 41.7464 238.093 43.7464C237.56 44.4131 235.293 45.4797 232.893 45.8797C228.493 46.8131 212.493 55.0797 209.56 58.1464C208.627 59.0797 202.627 62.6797 196.227 66.0131C189.827 69.4797 179.027 76.9464 172.36 82.4131C165.56 88.0131 155.427 96.1464 149.96 100.546C138.493 109.613 109.293 139.08 99.2934 151.48C95.5601 156.013 89.0268 164.146 84.7601 169.613C75.9601 180.546 66.6268 194.946 62.7601 203.346C61.2934 206.413 59.5601 209.346 58.7601 209.88C57.2934 210.68 55.2934 214.413 49.2934 226.546C47.6934 229.88 45.5601 234.013 44.4934 235.88C39.6934 244.013 35.2934 254.413 26.2268 278.813C24.4934 283.48 22.0934 288.946 21.0268 291.213C19.9601 293.346 18.4934 298.146 17.9601 301.746C17.4268 305.48 15.9601 311.08 14.6268 314.413C13.2934 317.746 11.5601 325.88 10.7601 332.413C9.82676 338.946 8.22676 346.546 7.16009 349.08C5.82676 352.013 4.62676 361.613 3.82676 373.213C3.16009 383.88 1.96009 396.546 1.29342 401.48C-0.573244 413.746 -0.439911 425.746 1.82676 444.546C2.89342 453.346 4.09342 465.346 4.62676 471.213C5.02676 477.08 6.62676 486.013 7.96009 491.213C9.29342 496.28 10.7601 503.213 11.2934 506.546C13.4268 521.08 20.3601 546.946 25.2934 559.213C28.3601 566.546 32.2268 576.413 33.9601 581.213C39.8268 597.213 42.7601 604.413 45.1601 607.746C46.4934 609.613 49.5601 615.346 51.9601 620.546C54.4934 625.613 59.2934 633.88 62.7601 638.68C66.2268 643.48 70.3601 649.88 71.8268 652.68C76.4934 661.213 86.2268 674.68 95.1601 684.546C99.6934 689.613 106.227 697.213 109.56 701.213C112.76 705.213 119.96 712.813 125.427 718.013C138.493 730.68 174.227 760.946 179.027 763.346C181.16 764.546 186.227 768.013 190.36 771.08C194.493 774.28 200.627 778.146 203.96 779.746C210.76 782.946 230.627 794.413 233.427 796.68C234.493 797.613 243.693 801.613 253.96 805.88C327.827 836.013 376.76 843.88 461.96 839.346C497.827 837.346 508.76 836.146 515.96 833.48C517.827 832.813 523.827 831.48 529.293 830.546C534.76 829.613 540.76 828.146 542.627 827.213C544.493 826.28 549.293 824.813 553.293 823.88C563.293 821.746 589.16 813.213 589.96 811.88C590.36 811.213 593.827 809.746 597.56 808.413C612.36 803.48 641.16 788.013 663.027 773.346C668.093 770.013 674.093 766.013 676.493 764.546C695.693 752.946 733.693 714.413 750.893 689.213C752.227 687.346 755.427 683.213 757.96 679.88C762.093 674.546 765.16 669.613 772.093 657.08C773.293 654.946 775.827 650.946 777.56 648.146C779.293 645.48 782.36 639.88 784.227 635.88C786.093 631.88 790.627 622.28 794.36 614.546C800.76 601.213 803.427 593.613 813.293 561.213C815.56 553.48 818.627 543.88 820.093 539.88C823.16 530.946 824.893 520.28 825.96 504.546C826.493 497.88 827.693 487.48 828.627 481.213C830.76 468.013 831.827 396.013 830.093 382.946C828.76 372.413 824.893 366.413 818.627 364.813C816.093 364.28 769.027 363.48 713.96 363.08C617.027 362.546 613.827 362.546 609.827 365.08C606.36 367.08 605.56 368.68 604.76 374.013C603.827 381.08 605.027 489.613 606.093 496.946C606.627 500.013 607.96 502.146 611.027 503.88C614.76 506.28 617.827 506.546 636.893 506.546C648.76 506.546 659.293 506.946 660.493 507.346C663.56 508.546 663.16 513.746 659.16 527.346C650.893 555.88 631.56 589.48 609.56 613.613C587.96 637.346 556.093 659.613 528.627 670.28C503.427 679.88 481.693 684.413 449.693 686.813C409.56 689.746 371.56 685.213 337.293 673.613C312.093 665.08 278.493 646.546 257.827 629.88C234.093 610.546 205.56 576.813 194.227 554.546C192.893 552.013 190.36 547.213 188.627 543.88C186.893 540.546 183.56 533.08 181.16 527.213C164.36 485.48 162.493 476.146 161.693 428.546C161.027 397.613 161.293 391.613 163.96 374.546C165.56 363.88 167.96 352.146 169.293 348.546C170.627 344.813 172.893 338.28 174.36 333.88C182.893 308.013 197.96 277.88 209.96 263.213C212.893 259.48 217.027 253.88 219.16 250.68C223.56 243.88 247.16 220.546 257.027 213.48C260.76 210.813 267.56 205.746 272.227 202.413C276.893 199.08 282.627 195.346 284.893 194.013C287.293 192.813 291.427 190.28 294.227 188.413C299.693 184.68 305.96 181.746 336.627 167.88C352.893 160.546 380.76 155.613 415.693 153.88C436.893 152.68 481.293 156.946 498.227 161.746C530.493 170.813 557.56 185.213 578.76 204.546C580.627 206.28 584.36 208.813 587.027 210.013C594.76 213.746 598.093 211.346 631.027 179.213C647.427 163.08 667.16 144.28 674.76 137.346C691.693 122.013 698.627 114.013 698.627 109.613C698.627 105.746 684.493 90.2797 677.96 86.9464C675.827 85.7464 671.827 82.9464 669.027 80.6797C661.96 74.6797 653.293 68.5464 647.96 65.8797C645.427 64.5464 639.827 60.9464 635.693 57.8797C631.56 54.6797 625.16 50.9464 621.693 49.3464C618.227 47.7464 610.093 43.7464 603.827 40.5464C584.36 30.4131 530.36 12.0131 514.36 9.87973C510.493 9.34639 501.96 7.87973 495.293 6.54639C481.56 3.61306 436.227 -0.253608 419.693 0.0130584C413.56 0.146392 398.093 1.07973 385.293 2.01306Z" fill="#34B0E6"/>
<path d="M493.96 320.413C489.56 322.146 484.226 324.413 481.96 325.613C479.826 326.813 477.426 327.879 476.76 327.879C475.026 327.879 450.493 337.213 445.026 340.013C442.226 341.346 439.426 342.546 438.626 342.546C437.826 342.546 433.96 344.013 430.226 345.746C426.36 347.613 417.56 351.346 410.626 354.013C403.693 356.679 396.493 360.013 394.626 361.213C392.76 362.413 389.56 363.879 387.293 364.413C385.16 364.946 380.36 366.813 376.626 368.413C363.56 374.546 350.76 379.879 349.426 379.879C348.76 379.879 346.093 381.079 343.693 382.413C341.293 383.879 332.76 387.479 324.626 390.679C316.626 393.746 308.493 397.346 306.76 398.813C305.026 400.146 303.026 401.213 302.36 401.213C300.493 401.213 274.226 411.879 272.493 413.346C271.693 414.013 268.493 415.479 265.426 416.546C254.76 420.279 244.226 427.613 243.293 431.879C241.826 438.813 246.493 443.213 260.493 447.746C267.16 450.013 276.493 452.679 281.293 453.746C286.093 454.679 292.36 456.546 295.293 457.746C298.226 458.813 304.893 459.746 309.96 459.879C323.96 459.879 328.36 457.613 385.693 419.079C426.36 391.879 448.093 378.413 450.626 378.813C456.226 379.879 452.76 384.546 428.36 408.679C414.626 422.413 396.226 440.279 387.56 448.413C378.76 456.546 370.893 464.813 369.826 466.813C368.76 468.813 367.96 473.479 367.96 477.079C367.96 483.079 368.626 484.546 372.893 489.346C375.56 492.279 379.96 495.879 382.493 497.346C385.16 498.813 389.16 501.346 391.426 502.946C395.426 505.746 401.96 510.013 420.36 521.613C424.76 524.413 431.693 529.479 435.826 533.079C439.96 536.546 445.426 540.546 447.96 541.879C450.493 543.079 453.56 544.946 454.626 545.879C457.426 548.279 472.36 553.213 477.026 553.213C482.36 553.213 489.16 548.279 493.693 541.079C497.693 534.546 498.36 531.346 504.626 485.879C506.493 471.879 509.16 453.613 510.626 445.213C512.093 436.813 513.56 426.813 514.093 423.213C514.493 419.479 515.96 412.013 517.293 406.546C519.426 397.613 521.426 382.146 525.16 343.213C526.36 329.479 525.16 324.813 519.293 320.146C514.36 316.279 504.493 316.413 493.96 320.413Z" fill="#35B1E7"/>
</svg>
